<svg xmlns="http://www.w3.org/2000/svg" viewBox="0 0 512 512">
  <rect width="512" height="512" fill="#101816"/>
  <rect x="20" y="20" width="472" height="472" rx="104" fill="#101816" stroke="#21312c" stroke-width="8"/>
  <rect x="108" y="168" width="316" height="128" rx="22" fill="#e6f0ec"/>
  <path d="M424 168 L448 196 L448 296 L424 296 Z" fill="#e6f0ec"/>
  <rect x="112" y="246" width="336" height="22" rx="6" fill="#28d08a"/>
  <rect x="140" y="184" width="56" height="40" rx="9" fill="#0a0f0d"/>
  <rect x="212" y="184" width="56" height="40" rx="9" fill="#0a0f0d"/>
  <rect x="284" y="184" width="56" height="40" rx="9" fill="#0a0f0d"/>
  <rect x="356" y="184" width="40" height="40" rx="9" fill="#0a0f0d"/>
  <circle cx="430" cy="210" r="10" fill="#f5b942"/>
  <rect x="118" y="276" width="28" height="34" rx="6" fill="#7d918a" opacity="0.7"/>
  <rect x="186" y="276" width="28" height="34" rx="6" fill="#7d918a" opacity="0.7"/>
  <rect x="382" y="276" width="28" height="34" rx="6" fill="#7d918a" opacity="0.7"/>
  <circle cx="148" cy="320" r="20" fill="#0a0f0d"/>
  <circle cx="148" cy="320" r="8" fill="#7d918a"/>
  <circle cx="262" cy="320" r="20" fill="#0a0f0d"/>
  <circle cx="262" cy="320" r="8" fill="#7d918a"/>
  <circle cx="376" cy="320" r="20" fill="#0a0f0d"/>
  <circle cx="376" cy="320" r="8" fill="#7d918a"/>
  <rect x="100" y="352" width="312" height="10" rx="5" fill="#28d08a"/>
  <rect x="116" y="372" width="40" height="8" rx="4" fill="#21312c"/>
  <rect x="192" y="372" width="40" height="8" rx="4" fill="#21312c"/>
  <rect x="268" y="372" width="40" height="8" rx="4" fill="#21312c"/>
  <rect x="344" y="372" width="40" height="8" rx="4" fill="#21312c"/>
  <rect x="84" y="140" width="34" height="8" rx="4" fill="#28d08a"/>
  <rect x="84" y="160" width="22" height="8" rx="4" fill="#28d08a"/>
</svg>